<svg width="64" height="64" xmlns="http://www.w3.org/2000/svg">
 <g>
  <title>Layer 1</title>
  <path id="signal" transform="rotate(-45, 30, 23)" fill="#000" d="m11.11514,24.72092c5.39009,0 10.45797,1.96946 14.265,5.54228c3.81579,3.57445 5.91369,8.33712 5.91369,13.40543l8.30928,0c0,-14.72276 -12.78176,-26.69808 -28.48973,-26.69808l0,7.75037l0.00175,0l0.00001,0zm0.01051,-13.74211c19.21555,0 34.84471,14.66882 34.84471,32.69799l8.30578,0c0,-22.30315 -19.35739,-40.45 -43.15224,-40.45l0,0" />
  <path id="x" fill="#ff3545" d="m24,42.79213l3.91458,-4.15638l4.1584,4.41522l4.1584,-4.41522l3.91462,4.15638l-4.1584,4.41526l4.1584,4.41526l-3.91462,4.15642l-4.1584,-4.41526l-4.1584,4.41526l-3.91458,-4.15642l4.15836,-4.41526l-4.15836,-4.41526z" />
 </g>
</svg>